<?xml version="1.0" standalone="no"?>
<svg viewBox="0 0 200 200" xmlns="http://www.w3.org/2000/svg">
  <path fill="#F2F4F8" d="M33.3,-60.7C43.4,-51.7,52.3,-43.5,58.2,-33.5C64.1,-23.5,67.1,-11.8,67.8,0.4C68.6,12.6,66.9,25.1,63,38.5C59,51.9,52.7,66.1,41.8,69.2C30.9,72.4,15.4,64.5,4,57.7C-7.5,50.8,-15,44.9,-28.5,43.3C-42.1,41.6,-61.6,44.2,-74.2,37.7C-86.9,31.2,-92.7,15.6,-91.9,0.4C-91.1,-14.7,-83.8,-29.4,-71,-35.8C-58.3,-42.1,-40.1,-40.1,-27.4,-47.7C-14.7,-55.2,-7.3,-72.3,2.1,-75.9C11.5,-79.6,23.1,-69.8,33.3,-60.7Z" transform="translate(100 100)" />
</svg>
