<svg xmlns="http://www.w3.org/2000/svg" version="1.1" xmlns:xlink="http://www.w3.org/1999/xlink" xmlns:svgjs="http://svgjs.com/svgjs" width="1440" height="560" preserveAspectRatio="none" viewBox="0 0 1440 560"><g mask="url(&quot;#SvgjsMask1040&quot;)" fill="none"><rect width="1440" height="560" x="0" y="0" fill="rgba(137, 70, 9, 1)"></rect><path d="M0,513.294C98.778,511.775,197.711,490.33,279.656,435.154C360.632,380.63,398.923,287.881,454.236,207.443C522.47,108.213,663.15,26.262,642.399,-92.363C621.471,-212.001,439.869,-220.504,362.935,-314.485C282.394,-412.871,309.113,-602.289,189.551,-645.55C72.248,-687.994,-29.141,-541.198,-146.461,-498.8C-254.037,-459.923,-390.613,-489.613,-469.949,-407.213C-549.663,-324.421,-542.221,-193.782,-550.506,-79.151C-558.276,28.363,-565.185,139.708,-516.424,235.843C-468.564,330.202,-378.441,393.765,-285.238,443.839C-197.252,491.11,-99.868,514.83,0,513.294" fill="#603106"></path><path d="M1440 942.804C1513.523 948.9929999999999 1583.87 919.835 1649.136 885.421 1719.1979999999999 848.4780000000001 1795.626 809.48 1829.041 737.669 1862.52 665.722 1830.05 583.7139999999999 1826.413 504.442 1822.318 415.18100000000004 1855.798 316.986 1806.328 242.575 1755.982 166.84699999999998 1656.341 145.89800000000002 1569.695 118.298 1481.239 90.12099999999998 1382.7 40.150999999999954 1299.38 81.09199999999998 1215.49 122.31299999999999 1203.376 235.166 1161.643 318.802 1130.529 381.156 1107.47 442.839 1085.8220000000001 509.077 1059.253 590.375 982.798 674.797 1020.154 751.737 1057.7359999999999 829.1410000000001 1174.0149999999999 816.3779999999999 1252.331 852.019 1316.888 881.398 1369.3220000000001 936.855 1440 942.804" fill="#b25b0c"></path></g><defs><mask id="SvgjsMask1040"><rect width="1440" height="560" fill="#ffffff"></rect></mask></defs></svg>